<svg xmlns="http://www.w3.org/2000/svg" xmlns:xlink="http://www.w3.org/1999/xlink" width="2000" zoomAndPan="magnify" viewBox="0 0 1500 1499.999933" height="2000" preserveAspectRatio="xMidYMid meet" version="1.0"><defs><clipPath id="297d82d3c3"><path d="M 340 994.554688 L 1169 994.554688 L 1169 1268.304688 L 340 1268.304688 Z M 340 994.554688 " clip-rule="nonzero"/></clipPath><clipPath id="344258a629"><path d="M 459 243.363281 L 888 243.363281 L 888 1038.363281 L 459 1038.363281 Z M 459 243.363281 " clip-rule="nonzero"/></clipPath><clipPath id="16b62dd631"><path d="M 534 284 L 995 284 L 995 1038.363281 L 534 1038.363281 Z M 534 284 " clip-rule="nonzero"/></clipPath></defs><g clip-path="url(#297d82d3c3)"><path fill="#fc0000" d="M 1073.015625 1039.851562 C 1085.90625 1043.859375 1098.527344 1048.792969 1110.78125 1054.609375 C 1122.964844 1060.539062 1134.78125 1067.546875 1145.144531 1076.621094 C 1150.28125 1081.183594 1155.085938 1086.246094 1158.957031 1092.082031 C 1162.859375 1097.871094 1165.832031 1104.4375 1167.203125 1111.4375 C 1167.917969 1114.925781 1168.179688 1118.519531 1167.992188 1122.070312 C 1167.917969 1125.640625 1167.257812 1129.15625 1166.4375 1132.601562 C 1164.601562 1139.457031 1161.484375 1145.855469 1157.648438 1151.671875 C 1149.84375 1163.269531 1139.507812 1172.640625 1128.546875 1180.757812 C 1117.507812 1188.832031 1105.730469 1195.734375 1093.5625 1201.753906 C 1069.230469 1213.839844 1043.539062 1222.714844 1017.472656 1229.6875 C 1042.933594 1220.753906 1067.964844 1210.632812 1091.671875 1198.089844 C 1097.578125 1194.921875 1103.371094 1191.566406 1109.070312 1188.074219 C 1114.742188 1184.546875 1120.253906 1180.773438 1125.550781 1176.753906 C 1136.128906 1168.746094 1146.035156 1159.644531 1153.257812 1148.746094 C 1156.871094 1143.332031 1159.757812 1137.464844 1161.453125 1131.289062 C 1162.203125 1128.1875 1162.824219 1125.039062 1162.902344 1121.859375 C 1163.097656 1118.683594 1162.867188 1115.492188 1162.300781 1112.359375 C 1161.191406 1106.082031 1158.628906 1100.0625 1155.097656 1094.613281 C 1151.582031 1089.144531 1147.179688 1084.203125 1142.382812 1079.664062 C 1132.65625 1070.675781 1121.371094 1063.304688 1109.601562 1056.898438 C 1097.867188 1050.371094 1085.5 1044.976562 1073.015625 1039.851562 Z M 951.273438 1012.976562 L 983.128906 1019.019531 C 988.441406 1019.980469 993.742188 1021.015625 999.039062 1022.066406 C 1004.355469 1023.027344 1009.636719 1024.160156 1014.949219 1025.160156 C 1025.554688 1027.253906 1036.152344 1029.410156 1046.863281 1031.386719 C 1036.765625 1027.296875 1026.382812 1024.007812 1015.890625 1021.144531 C 1013.273438 1020.414062 1010.644531 1019.707031 1008 1019.082031 C 1005.363281 1018.425781 1002.71875 1017.78125 1000.070312 1017.171875 C 994.773438 1015.96875 989.445312 1014.878906 984.113281 1013.832031 C 978.765625 1012.859375 973.414062 1011.910156 968.046875 1011.085938 C 962.667969 1010.304688 957.296875 1009.496094 951.890625 1008.917969 C 941.101562 1007.65625 930.265625 1006.753906 919.378906 1006.527344 C 930.003906 1008.925781 940.640625 1010.957031 951.273438 1012.976562 Z M 610.121094 1005.363281 C 621.871094 1004.460938 633.625 1003.707031 645.382812 1003.019531 C 668.898438 1001.6875 692.421875 1000.691406 715.960938 1000.164062 C 727.730469 999.851562 739.5 999.652344 751.277344 999.570312 C 763.050781 999.390625 774.824219 999.476562 786.605469 999.46875 C 810.160156 999.632812 833.726562 999.984375 857.328125 1000.613281 C 833.871094 997.933594 810.296875 996.203125 786.691406 995.347656 C 774.890625 994.863281 763.078125 994.679688 751.269531 994.566406 C 739.457031 994.492188 727.644531 994.652344 715.832031 994.882812 C 704.023438 995.207031 692.21875 995.671875 680.421875 996.3125 C 668.628906 997.007812 656.839844 997.816406 645.078125 998.921875 C 621.542969 1000.996094 598.101562 1004.101562 574.855469 1008.222656 C 586.621094 1007.253906 598.359375 1006.136719 610.121094 1005.363281 Z M 457.085938 1217.488281 C 449.824219 1214.484375 442.632812 1211.328125 435.542969 1207.96875 C 421.359375 1201.292969 407.53125 1193.855469 394.527344 1185.246094 C 381.625 1176.5625 369.324219 1166.742188 359.8125 1154.679688 C 355.140625 1148.632812 351.109375 1142.082031 348.703125 1134.96875 C 347.527344 1131.417969 346.628906 1127.773438 346.324219 1124.070312 C 346.03125 1120.375 346.132812 1116.652344 346.757812 1113 C 348.023438 1105.699219 351.167969 1098.738281 355.578125 1092.597656 C 359.910156 1086.382812 365.433594 1080.976562 371.347656 1076.0625 C 383.226562 1066.210938 396.972656 1058.609375 411.042969 1051.890625 C 418.09375 1048.53125 425.328125 1045.539062 432.621094 1042.683594 C 439.90625 1039.820312 447.296875 1037.179688 454.746094 1034.722656 C 469.601562 1029.625 484.777344 1025.496094 499.980469 1021.421875 C 469.101562 1027.402344 438.398438 1035.414062 409.332031 1048.140625 C 394.839844 1054.519531 380.75 1062.167969 368.179688 1072.191406 C 361.9375 1077.230469 356.101562 1082.929688 351.371094 1089.605469 C 346.582031 1096.203125 343 1103.894531 341.554688 1112.113281 C 340.867188 1116.226562 340.773438 1120.421875 341.128906 1124.558594 C 341.492188 1128.707031 342.511719 1132.75 343.824219 1136.648438 C 346.539062 1144.449219 350.867188 1151.480469 355.90625 1157.78125 C 360.984375 1164.066406 366.796875 1169.640625 372.921875 1174.757812 C 379.050781 1179.878906 385.574219 1184.46875 392.292969 1188.691406 C 419.25 1205.546875 448.941406 1217.0625 479.070312 1226.042969 C 471.703125 1223.28125 464.367188 1220.441406 457.085938 1217.488281 Z M 804.886719 1262.261719 C 779.984375 1263.0625 755.070312 1263.207031 730.171875 1262.648438 C 717.722656 1262.417969 705.28125 1261.9375 692.84375 1261.308594 C 680.402344 1260.75 667.980469 1259.878906 655.554688 1258.945312 C 643.136719 1257.953125 630.722656 1256.835938 618.328125 1255.507812 C 605.910156 1254.308594 593.542969 1252.683594 581.144531 1251.128906 C 605.5625 1256.425781 630.300781 1260.359375 655.171875 1263.050781 C 680.039062 1265.820312 705.042969 1267.304688 730.058594 1267.929688 C 742.566406 1268.128906 755.082031 1268.191406 767.589844 1267.945312 C 780.097656 1267.644531 792.605469 1267.214844 805.085938 1266.363281 C 817.566406 1265.585938 830.027344 1264.496094 842.457031 1263.136719 C 854.871094 1261.652344 867.277344 1260.121094 879.597656 1258.03125 C 854.691406 1260.023438 829.792969 1261.421875 804.886719 1262.261719 Z M 1042.433594 1171.503906 C 1041.101562 1172.121094 1039.800781 1172.792969 1038.457031 1173.382812 L 1034.40625 1175.105469 L 1026.308594 1178.53125 L 1018.078125 1181.632812 C 1012.652344 1183.824219 1007.050781 1185.574219 1001.535156 1187.523438 C 995.988281 1189.390625 990.375 1191.0625 984.800781 1192.839844 L 967.902344 1197.601562 C 962.226562 1199.027344 956.570312 1200.523438 950.882812 1201.894531 L 933.765625 1205.804688 L 916.554688 1209.296875 L 899.28125 1212.484375 L 881.933594 1215.269531 C 870.351562 1217.039062 858.738281 1218.605469 847.097656 1219.996094 C 841.285156 1220.78125 835.445312 1221.320312 829.613281 1221.9375 L 820.863281 1222.875 C 817.945312 1223.183594 815.019531 1223.375 812.097656 1223.648438 C 806.25 1224.148438 800.40625 1224.828125 794.546875 1225.1875 C 788.6875 1225.570312 782.824219 1226.019531 776.960938 1226.515625 C 800.480469 1226.910156 824.046875 1226.144531 847.519531 1224.09375 C 870.996094 1222.109375 894.390625 1218.925781 917.554688 1214.480469 C 940.695312 1209.929688 963.65625 1204.261719 986.039062 1196.753906 C 1008.402344 1189.261719 1030.257812 1179.917969 1050.421875 1167.765625 Z M 1006.03125 1043.136719 C 1014.332031 1045.726562 1022.605469 1048.371094 1030.710938 1051.4375 C 1038.832031 1054.449219 1046.851562 1057.71875 1054.59375 1061.511719 C 1062.371094 1065.214844 1069.839844 1069.515625 1076.769531 1074.480469 C 1080.195312 1077.003906 1083.484375 1079.699219 1086.492188 1082.660156 C 1089.445312 1085.660156 1092.128906 1088.90625 1094.308594 1092.453125 C 1098.679688 1099.507812 1100.605469 1108.046875 1099.011719 1116.378906 C 1097.535156 1124.738281 1093.101562 1132.472656 1087.824219 1139.398438 C 1093.976562 1133.234375 1099.214844 1125.730469 1101.546875 1116.933594 C 1102.683594 1112.554688 1102.9375 1107.90625 1102.3125 1103.355469 C 1101.691406 1098.792969 1100.074219 1094.402344 1097.882812 1090.394531 C 1095.691406 1086.375 1092.917969 1082.722656 1089.8125 1079.4375 C 1086.6875 1076.171875 1083.285156 1073.21875 1079.753906 1070.464844 C 1072.574219 1065.125 1064.851562 1060.644531 1056.898438 1056.761719 C 1040.914062 1049.128906 1024.140625 1043.550781 1007.144531 1039.179688 C 990.144531 1034.785156 972.878906 1031.625 955.507812 1029.507812 C 972.480469 1033.777344 989.394531 1038.039062 1006.03125 1043.136719 Z M 727.292969 1015.785156 C 746.082031 1015.855469 764.863281 1015.992188 783.636719 1016.40625 C 793.023438 1016.550781 802.410156 1016.820312 811.792969 1017.113281 C 821.179688 1017.335938 830.558594 1017.785156 839.949219 1018.113281 C 858.71875 1018.875 877.480469 1019.914062 896.296875 1020.894531 C 877.722656 1017.726562 858.984375 1015.539062 840.203125 1014 C 830.8125 1013.175781 821.40625 1012.632812 811.996094 1012.117188 C 802.582031 1011.671875 793.164062 1011.359375 783.742188 1011.128906 C 774.320312 1011.003906 764.898438 1010.90625 755.476562 1010.988281 C 746.054688 1011.121094 736.632812 1011.261719 727.21875 1011.679688 C 708.390625 1012.421875 689.582031 1013.714844 670.867188 1015.9375 Z M 416.613281 1087.300781 C 419.433594 1083.894531 422.578125 1080.769531 426.054688 1078.035156 C 427.722656 1076.59375 429.5625 1075.34375 431.320312 1074.019531 C 433.171875 1072.800781 434.957031 1071.507812 436.878906 1070.398438 C 440.621094 1068.046875 444.523438 1065.941406 448.472656 1063.929688 C 456.402344 1059.972656 464.589844 1056.496094 472.941406 1053.449219 C 481.28125 1050.359375 489.742188 1047.570312 498.3125 1045.113281 C 506.855469 1042.566406 515.492188 1040.304688 524.164062 1038.1875 C 532.824219 1035.980469 541.574219 1034.152344 550.3125 1032.234375 C 567.816406 1028.519531 585.449219 1025.328125 603.117188 1022.03125 C 585.179688 1023.144531 567.296875 1025.210938 549.542969 1028.183594 C 540.660156 1029.628906 531.824219 1031.378906 523.023438 1033.316406 C 514.234375 1035.308594 505.496094 1037.550781 496.820312 1040.050781 C 479.539062 1045.21875 462.425781 1051.445312 446.542969 1060.304688 C 438.640625 1064.765625 430.988281 1069.820312 424.351562 1076.097656 C 421.019531 1079.203125 417.988281 1082.664062 415.441406 1086.4375 C 412.890625 1090.199219 410.855469 1094.328125 409.703125 1098.679688 C 411.386719 1094.503906 413.816406 1090.722656 416.613281 1087.300781 Z M 638.523438 1217.304688 C 625.667969 1215.394531 612.84375 1213.300781 600.09375 1210.847656 C 587.332031 1208.429688 574.617188 1205.796875 562.019531 1202.683594 C 549.402344 1199.664062 536.882812 1196.25 524.5 1192.414062 C 512.09375 1188.644531 499.871094 1184.308594 487.832031 1179.527344 C 475.820312 1174.675781 464.054688 1169.210938 452.78125 1162.828125 C 441.488281 1156.496094 430.785156 1149.011719 421.59375 1139.746094 C 425.730469 1144.792969 430.488281 1149.328125 435.539062 1153.496094 C 440.558594 1157.71875 445.960938 1161.445312 451.441406 1165.046875 C 462.535156 1172.042969 474.21875 1178.089844 486.230469 1183.328125 C 510.257812 1193.839844 535.375 1201.589844 560.78125 1207.816406 C 586.234375 1213.894531 612.035156 1218.375 637.988281 1221.378906 C 650.964844 1222.882812 663.980469 1224 677.007812 1224.820312 C 690.046875 1225.460938 703.078125 1226.015625 716.121094 1225.992188 C 690.132812 1223.863281 664.253906 1221.03125 638.523438 1217.304688 Z M 535.355469 1057.214844 L 544.992188 1054.445312 C 551.453125 1052.726562 557.917969 1051.042969 564.457031 1049.667969 C 577.503906 1046.789062 590.671875 1044.472656 603.898438 1042.617188 C 630.320312 1038.652344 656.960938 1036.285156 683.628906 1034.78125 C 736.960938 1031.851562 790.519531 1031.957031 843.777344 1035.828125 C 870.40625 1037.65625 896.980469 1040.4375 923.289062 1044.785156 C 949.542969 1049.214844 975.722656 1055.027344 1000.386719 1064.746094 C 1006.507812 1067.253906 1012.511719 1070.042969 1018.167969 1073.382812 C 1023.789062 1076.742188 1029.175781 1080.59375 1033.417969 1085.433594 C 1037.617188 1090.222656 1040.597656 1096.230469 1040.28125 1102.539062 C 1040.140625 1108.851562 1036.957031 1114.816406 1032.914062 1119.859375 C 1028.820312 1124.945312 1023.761719 1129.296875 1018.40625 1133.183594 C 1013.023438 1137.058594 1007.300781 1140.492188 1001.410156 1143.609375 C 995.523438 1146.746094 989.453125 1149.546875 983.304688 1152.15625 C 977.164062 1154.789062 970.925781 1157.210938 964.621094 1159.457031 C 977.390625 1155.46875 990 1150.8125 1002.046875 1144.855469 C 1008.070312 1141.894531 1013.953125 1138.597656 1019.550781 1134.820312 C 1025.121094 1131.015625 1030.445312 1126.730469 1034.914062 1121.507812 C 1037.132812 1118.894531 1039.089844 1116.007812 1040.589844 1112.847656 C 1042.101562 1109.703125 1043.09375 1106.234375 1043.253906 1102.664062 C 1043.460938 1099.101562 1042.8125 1095.492188 1041.457031 1092.210938 C 1040.128906 1088.914062 1038.195312 1085.925781 1035.953125 1083.261719 C 1031.441406 1077.933594 1025.855469 1073.8125 1020.082031 1070.21875 C 1014.273438 1066.644531 1008.160156 1063.671875 1001.949219 1060.996094 C 989.496094 1055.703125 976.59375 1051.671875 963.550781 1048.359375 C 950.511719 1045.03125 937.332031 1042.332031 924.097656 1040.046875 C 897.613281 1035.511719 870.910156 1032.539062 844.152344 1030.566406 C 817.382812 1028.753906 790.558594 1027.957031 763.75 1027.964844 C 736.9375 1028.019531 710.113281 1028.691406 683.371094 1030.75 C 656.636719 1032.75 629.941406 1035.570312 603.5 1040.074219 C 590.28125 1042.328125 577.140625 1045.042969 564.140625 1048.316406 C 551.144531 1051.5625 538.261719 1055.386719 525.824219 1060.355469 Z M 623.074219 1174.902344 C 614.054688 1172.921875 605.085938 1170.789062 596.15625 1168.535156 C 587.238281 1166.226562 578.359375 1163.820312 569.582031 1161.085938 C 560.796875 1158.394531 552.078125 1155.5 543.535156 1152.183594 C 534.964844 1148.949219 526.550781 1145.316406 518.433594 1141.164062 C 510.28125 1137.085938 502.515625 1132.269531 495.5 1126.617188 C 491.996094 1123.78125 488.84375 1120.566406 486.144531 1117.050781 C 483.460938 1113.527344 481.363281 1109.554688 480.46875 1105.265625 C 479.5 1100.988281 479.96875 1096.425781 481.664062 1092.253906 C 483.351562 1088.074219 486.078125 1084.277344 489.238281 1080.90625 C 485.695312 1083.875 482.503906 1087.402344 480.328125 1091.648438 C 478.128906 1095.863281 477.226562 1100.859375 477.910156 1105.691406 C 478.582031 1110.535156 480.660156 1115.0625 483.320312 1119.050781 C 486.003906 1123.042969 489.273438 1126.578125 492.800781 1129.734375 C 496.347656 1132.875 500.078125 1135.808594 504.027344 1138.363281 C 505.964844 1139.707031 507.996094 1140.878906 509.984375 1142.132812 C 512.027344 1143.28125 514.035156 1144.511719 516.109375 1145.59375 C 524.382812 1149.996094 532.957031 1153.742188 541.648438 1157.113281 C 559.101562 1163.695312 577.054688 1168.71875 595.222656 1172.535156 C 613.386719 1176.367188 631.757812 1179.074219 650.21875 1180.582031 C 641.148438 1178.699219 632.085938 1176.902344 623.074219 1174.902344 Z M 818.09375 1183.976562 C 810.972656 1184.230469 803.859375 1184.574219 796.738281 1184.742188 C 789.621094 1184.96875 782.503906 1185.183594 775.386719 1185.253906 C 768.269531 1185.417969 761.148438 1185.488281 754.03125 1185.503906 C 746.910156 1185.597656 739.785156 1185.507812 732.660156 1185.515625 L 689.820312 1185.042969 C 703.960938 1187.359375 718.226562 1188.777344 732.523438 1189.636719 C 739.671875 1190.121094 746.832031 1190.304688 753.992188 1190.507812 C 761.15625 1190.636719 768.316406 1190.609375 775.480469 1190.53125 C 789.804688 1190.230469 804.125 1189.476562 818.382812 1188.070312 C 832.636719 1186.671875 846.847656 1184.726562 860.878906 1181.855469 Z M 959.71875 1093.636719 C 959.117188 1097.378906 957.09375 1100.726562 954.660156 1103.605469 C 952.242188 1106.535156 949.246094 1108.957031 946.175781 1111.210938 C 944.609375 1112.304688 943.054688 1113.410156 941.394531 1114.371094 L 938.941406 1115.859375 L 936.414062 1117.230469 C 929.679688 1120.894531 922.605469 1123.941406 915.402344 1126.621094 C 908.191406 1129.28125 900.882812 1131.710938 893.457031 1133.753906 C 878.613281 1137.855469 863.542969 1141.1875 848.320312 1143.652344 C 833.117188 1146.183594 817.800781 1148.121094 802.417969 1149.324219 C 787.050781 1150.636719 771.625 1151.316406 756.195312 1151.445312 C 740.761719 1151.664062 725.328125 1151.085938 709.917969 1150.128906 C 694.511719 1149.125 679.140625 1147.464844 663.855469 1145.175781 C 656.21875 1144.011719 648.585938 1142.742188 641.007812 1141.175781 C 633.4375 1139.585938 625.890625 1137.851562 618.386719 1135.882812 C 647.800781 1145.816406 678.636719 1151.402344 709.59375 1154.242188 C 725.082031 1155.695312 740.644531 1156.371094 756.210938 1156.449219 C 771.773438 1156.46875 787.339844 1155.828125 802.859375 1154.585938 C 833.867188 1151.914062 864.777344 1146.835938 894.621094 1137.691406 C 909.496094 1133.0625 924.183594 1127.4375 937.691406 1119.464844 L 940.199219 1117.929688 L 942.636719 1116.28125 C 944.28125 1115.210938 945.824219 1113.992188 947.375 1112.789062 C 950.417969 1110.308594 953.371094 1107.660156 955.746094 1104.476562 C 958.121094 1101.351562 960.085938 1097.71875 960.503906 1093.738281 C 961.066406 1089.753906 959.59375 1085.777344 957.265625 1082.71875 C 959.386719 1085.945312 960.515625 1089.902344 959.71875 1093.636719 Z M 572.871094 1115.421875 C 569.316406 1112.894531 565.929688 1110.125 562.980469 1106.96875 C 560.113281 1103.785156 557.535156 1100.195312 556.472656 1096.160156 C 555.308594 1092.15625 556.027344 1087.890625 558.128906 1084.398438 C 560.269531 1080.894531 563.5 1078.042969 567.039062 1075.710938 C 570.601562 1073.382812 574.414062 1071.390625 578.386719 1069.71875 C 586.3125 1066.332031 594.667969 1063.859375 603.101562 1061.769531 C 620.007812 1057.699219 637.285156 1055.019531 654.640625 1053.136719 C 671.988281 1051.179688 689.433594 1049.925781 706.902344 1049.164062 C 724.363281 1048.324219 741.859375 1047.96875 759.355469 1047.984375 C 776.851562 1047.914062 794.34375 1048.335938 811.828125 1049.042969 C 829.304688 1049.820312 846.765625 1051.035156 864.164062 1052.894531 C 881.574219 1054.699219 898.898438 1057.34375 915.984375 1061.316406 C 899.191406 1056.183594 881.851562 1053.003906 864.492188 1050.324219 C 847.09375 1047.84375 829.589844 1046.0625 812.054688 1044.925781 C 776.976562 1042.65625 741.792969 1042.359375 706.660156 1043.890625 C 697.878906 1044.324219 689.097656 1044.851562 680.332031 1045.566406 C 671.5625 1046.265625 662.796875 1047.082031 654.0625 1048.183594 C 636.597656 1050.371094 619.152344 1053.183594 602.074219 1057.796875 C 593.558594 1060.144531 585.070312 1062.792969 576.984375 1066.574219 C 572.933594 1068.4375 569.011719 1070.640625 565.316406 1073.234375 C 561.660156 1075.839844 558.191406 1079.011719 555.898438 1083.117188 C 553.644531 1087.214844 553.0625 1092.347656 554.578125 1096.726562 C 555.257812 1098.9375 556.367188 1100.960938 557.652344 1102.808594 C 558.902344 1104.695312 560.4375 1106.335938 561.984375 1107.9375 C 568.382812 1114.164062 576.113281 1118.597656 584 1122.386719 C 580.160156 1120.257812 576.417969 1117.964844 572.871094 1115.421875 Z M 829.808594 1077.847656 C 828.4375 1076.640625 826.84375 1075.78125 825.25 1074.96875 C 822.042969 1073.347656 818.621094 1072.285156 815.210938 1071.234375 C 808.351562 1069.253906 801.351562 1067.777344 794.304688 1066.632812 C 780.210938 1064.246094 765.925781 1063.566406 751.691406 1063.449219 C 737.445312 1063.417969 723.1875 1064.210938 708.996094 1066.058594 C 701.902344 1066.980469 694.824219 1068.238281 687.855469 1070.261719 C 684.375 1071.296875 680.90625 1072.480469 677.609375 1074.359375 C 675.972656 1075.304688 674.332031 1076.382812 672.976562 1078.019531 C 672.328125 1078.851562 671.695312 1079.796875 671.429688 1080.960938 C 671.136719 1082.089844 671.179688 1083.34375 671.5625 1084.394531 C 672.289062 1086.539062 673.753906 1087.992188 675.210938 1089.179688 C 676.699219 1090.363281 678.285156 1091.3125 679.902344 1092.152344 C 683.15625 1093.789062 686.523438 1095.050781 689.917969 1096.171875 C 696.726562 1098.359375 703.671875 1099.941406 710.660156 1101.269531 C 717.648438 1102.585938 724.683594 1103.699219 731.761719 1104.535156 C 738.84375 1105.335938 745.964844 1105.875 753.105469 1106.066406 C 767.378906 1106.332031 781.738281 1105.089844 795.671875 1101.800781 C 802.644531 1100.207031 809.511719 1098.140625 816.148438 1095.5 C 819.445312 1094.140625 822.71875 1092.679688 825.75 1090.765625 C 827.246094 1089.785156 828.734375 1088.765625 829.992188 1087.457031 C 831.234375 1086.171875 832.304688 1084.511719 832.34375 1082.605469 C 832.324219 1080.6875 831.164062 1079.019531 829.808594 1077.847656 Z M 829.558594 1087.03125 C 828.332031 1088.25 826.890625 1089.269531 825.378906 1090.144531 C 822.3125 1091.839844 819.050781 1093.195312 815.6875 1094.21875 C 808.976562 1096.332031 802.023438 1097.5625 795.070312 1098.539062 C 781.132812 1100.335938 767.136719 1101.292969 753.09375 1101.667969 C 746.070312 1101.894531 739.03125 1101.902344 731.992188 1101.601562 C 728.472656 1101.453125 724.957031 1101.214844 721.441406 1100.921875 C 717.933594 1100.574219 714.4375 1100.136719 710.953125 1099.582031 C 704.007812 1098.414062 697.105469 1096.835938 690.496094 1094.472656 C 687.199219 1093.289062 683.964844 1091.910156 680.996094 1090.164062 C 679.519531 1089.28125 678.109375 1088.316406 676.886719 1087.21875 C 675.671875 1086.132812 674.652344 1084.839844 674.332031 1083.574219 C 673.589844 1081.109375 676.351562 1078.917969 679.296875 1077.542969 C 682.277344 1076.125 685.609375 1075.160156 688.941406 1074.304688 C 695.664062 1072.683594 702.625 1071.765625 709.582031 1070.992188 C 716.550781 1070.25 723.570312 1069.804688 730.59375 1069.542969 C 737.621094 1069.285156 744.65625 1069.097656 751.695312 1069.085938 C 758.738281 1068.976562 765.777344 1069.125 772.8125 1069.265625 C 779.847656 1069.472656 786.882812 1069.660156 793.914062 1070.085938 C 800.929688 1070.5625 807.96875 1071.1875 814.859375 1072.632812 C 818.296875 1073.339844 821.703125 1074.292969 824.917969 1075.679688 C 826.515625 1076.378906 828.0625 1077.230469 829.390625 1078.332031 C 830.703125 1079.425781 831.757812 1080.910156 831.816406 1082.601562 C 831.757812 1084.292969 830.769531 1085.816406 829.558594 1087.03125 Z M 829.648438 1119.96875 C 813.933594 1122.402344 798.121094 1124.15625 782.246094 1125.140625 C 778.285156 1125.464844 774.308594 1125.609375 770.339844 1125.851562 L 758.417969 1126.261719 C 750.464844 1126.535156 742.503906 1126.539062 734.539062 1126.511719 C 718.609375 1126.367188 702.675781 1125.644531 686.691406 1124.515625 C 702.378906 1127.828125 718.371094 1129.710938 734.402344 1130.632812 C 750.441406 1131.570312 766.546875 1131.441406 782.597656 1130.40625 C 790.621094 1129.875 798.625 1129.035156 806.605469 1128.046875 C 814.566406 1126.90625 822.523438 1125.691406 830.390625 1124.003906 C 846.09375 1120.636719 861.75 1116.292969 876.179688 1109.214844 C 860.964844 1114.246094 845.332031 1117.382812 829.648438 1119.96875 Z M 627.820312 1109.609375 C 620.515625 1106.523438 613.28125 1102.941406 607.316406 1097.953125 C 604.390625 1095.480469 601.765625 1092.488281 600.882812 1089.128906 C 600.546875 1087.464844 600.488281 1085.757812 601.222656 1084.210938 C 601.921875 1082.679688 602.917969 1081.199219 604.324219 1079.996094 C 607.015625 1077.496094 610.4375 1075.605469 613.964844 1074.015625 C 617.511719 1072.441406 621.210938 1071.121094 624.980469 1069.992188 C 640.128906 1065.613281 655.917969 1063.179688 671.71875 1061.433594 C 687.535156 1059.691406 703.449219 1058.628906 719.382812 1058.070312 C 735.3125 1057.441406 751.273438 1057.300781 767.226562 1057.523438 C 783.175781 1057.699219 799.117188 1058.386719 815.015625 1059.539062 C 830.902344 1060.789062 846.777344 1062.492188 862.390625 1065.585938 C 870.171875 1067.175781 877.957031 1068.996094 885.335938 1071.910156 C 889.015625 1073.371094 892.628906 1075.074219 895.808594 1077.410156 L 897 1078.292969 L 898.085938 1079.289062 C 898.855469 1079.921875 899.410156 1080.734375 900.058594 1081.484375 C 901.164062 1083.109375 901.941406 1084.984375 902.054688 1087 C 902.078125 1084.984375 901.425781 1083.015625 900.390625 1081.265625 C 899.785156 1080.457031 899.253906 1079.570312 898.515625 1078.871094 L 897.460938 1077.765625 L 896.304688 1076.78125 C 893.160156 1074.203125 889.550781 1072.296875 885.886719 1070.621094 C 878.523438 1067.285156 870.746094 1065.054688 862.957031 1063.058594 C 847.296875 1059.324219 831.355469 1057.046875 815.382812 1055.433594 C 783.410156 1052.28125 751.269531 1051.71875 719.1875 1052.796875 C 703.148438 1053.464844 687.113281 1054.546875 671.140625 1056.484375 C 663.160156 1057.476562 655.195312 1058.671875 647.277344 1060.191406 C 639.359375 1061.707031 631.476562 1063.554688 623.753906 1066.078125 C 619.890625 1067.34375 616.074219 1068.808594 612.355469 1070.578125 C 608.664062 1072.371094 604.996094 1074.457031 601.917969 1077.53125 C 600.34375 1079 599.054688 1080.929688 598.207031 1083.058594 C 597.300781 1085.222656 597.402344 1087.722656 597.964844 1089.902344 C 599.339844 1094.300781 602.480469 1097.433594 605.695312 1099.953125 C 612.304688 1104.933594 619.785156 1108.140625 627.320312 1110.90625 C 634.875 1113.667969 642.625 1115.773438 650.441406 1117.488281 C 642.761719 1115.226562 635.175781 1112.664062 627.820312 1109.609375 Z M 627.820312 1109.609375 " fill-opacity="1" fill-rule="nonzero"/></g><path fill="#ff8154" d="M 830.949219 420.238281 L 755.410156 379.148438 C 789.957031 397.9375 812.824219 436.390625 812.738281 483.886719 C 812.726562 488.457031 812.503906 493.003906 812.074219 497.515625 C 811.9375 499.039062 811.640625 500.523438 811.453125 502.039062 C 811.082031 505.011719 810.746094 508 810.207031 510.933594 C 809.871094 512.730469 809.378906 514.480469 808.988281 516.257812 C 808.40625 518.863281 807.882812 521.492188 807.175781 524.054688 C 806.652344 525.9375 805.984375 527.753906 805.394531 529.613281 C 804.628906 532.035156 803.921875 534.472656 803.039062 536.851562 C 802.722656 537.703125 802.339844 538.527344 802.011719 539.371094 C 800.816406 542.433594 799.5625 545.464844 798.191406 548.4375 C 797.570312 549.777344 796.886719 551.082031 796.230469 552.40625 C 794.96875 554.945312 793.675781 557.472656 792.292969 559.9375 C 791.726562 560.941406 791.148438 561.9375 790.566406 562.929688 C 788.847656 565.835938 787.050781 568.679688 785.164062 571.464844 C 784.804688 572 784.46875 572.554688 784.101562 573.082031 C 781.875 576.285156 779.515625 579.382812 777.066406 582.402344 C 776.460938 583.152344 775.832031 583.890625 775.210938 584.628906 C 773.082031 587.167969 770.878906 589.632812 768.605469 592.019531 C 768.113281 592.539062 767.636719 593.085938 767.132812 593.59375 C 764.453125 596.339844 761.664062 598.960938 758.808594 601.480469 C 758.019531 602.171875 757.210938 602.820312 756.417969 603.5 C 754.132812 605.425781 751.804688 607.28125 749.417969 609.0625 C 748.527344 609.726562 747.644531 610.402344 746.738281 611.050781 C 744.558594 612.601562 742.304688 614.035156 740.050781 615.464844 C 738.753906 616.285156 737.492188 617.144531 736.175781 617.917969 C 733.550781 619.460938 730.847656 620.859375 728.136719 622.21875 C 727.191406 622.691406 726.277344 623.238281 725.328125 623.683594 C 721.875 625.316406 718.347656 626.769531 714.773438 628.097656 C 713.792969 628.460938 712.792969 628.777344 711.804688 629.117188 C 709.046875 630.0625 706.261719 630.910156 703.441406 631.667969 C 702.363281 631.953125 701.289062 632.257812 700.195312 632.515625 C 696.449219 633.414062 692.667969 634.195312 688.832031 634.730469 C 685.386719 635.214844 681.984375 635.5 678.613281 635.679688 C 677.542969 635.734375 676.496094 635.730469 675.433594 635.753906 C 673.109375 635.804688 670.808594 635.8125 668.523438 635.722656 C 667.355469 635.679688 666.1875 635.613281 665.027344 635.523438 C 662.808594 635.371094 660.617188 635.140625 658.445312 634.847656 C 657.390625 634.707031 656.320312 634.585938 655.273438 634.421875 C 652.597656 633.980469 649.957031 633.433594 647.355469 632.800781 C 646.890625 632.679688 646.410156 632.605469 645.945312 632.488281 C 642.839844 631.683594 639.8125 630.71875 636.832031 629.640625 C 635.972656 629.328125 635.148438 628.96875 634.304688 628.640625 C 632.175781 627.800781 630.070312 626.90625 628.015625 625.9375 C 626.265625 625.113281 624.507812 624.292969 622.8125 623.375 L 698.351562 664.464844 C 699.59375 665.140625 700.851562 665.792969 702.125 666.414062 C 702.589844 666.644531 703.085938 666.8125 703.554688 667.03125 C 705.613281 668.003906 707.714844 668.890625 709.84375 669.730469 C 710.6875 670.058594 711.511719 670.417969 712.371094 670.730469 C 715.351562 671.8125 718.378906 672.773438 721.484375 673.582031 C 721.554688 673.597656 721.609375 673.625 721.675781 673.640625 C 722.082031 673.742188 722.503906 673.792969 722.902344 673.890625 C 725.503906 674.53125 728.136719 675.070312 730.8125 675.511719 C 731.859375 675.679688 732.921875 675.804688 733.976562 675.941406 C 736.15625 676.230469 738.355469 676.46875 740.578125 676.621094 C 741.734375 676.703125 742.886719 676.773438 744.054688 676.816406 C 746.347656 676.902344 748.65625 676.902344 750.984375 676.847656 C 752.039062 676.820312 753.089844 676.828125 754.152344 676.773438 C 757.527344 676.597656 760.925781 676.3125 764.371094 675.828125 C 768.207031 675.289062 771.984375 674.503906 775.734375 673.609375 C 776.824219 673.351562 777.898438 673.046875 778.980469 672.761719 C 781.800781 672.007812 784.585938 671.152344 787.34375 670.207031 C 788.335938 669.867188 789.332031 669.550781 790.3125 669.191406 C 793.769531 667.90625 797.191406 666.519531 800.539062 664.949219 C 800.648438 664.898438 800.753906 664.832031 800.859375 664.78125 C 801.824219 664.328125 802.734375 663.78125 803.679688 663.308594 C 806.394531 661.945312 809.089844 660.554688 811.714844 659.007812 C 813.03125 658.238281 814.292969 657.375 815.582031 656.5625 C 817.265625 655.5 818.980469 654.5 820.617188 653.371094 C 821.183594 652.980469 821.71875 652.539062 822.277344 652.140625 C 823.183594 651.496094 824.0625 650.824219 824.957031 650.160156 C 827.335938 648.378906 829.671875 646.519531 831.957031 644.589844 C 832.75 643.917969 833.5625 643.261719 834.347656 642.574219 C 834.75 642.21875 835.171875 641.894531 835.5625 641.542969 C 838.007812 639.34375 840.363281 637.046875 842.671875 634.691406 C 843.175781 634.179688 843.652344 633.632812 844.15625 633.105469 C 845.511719 631.683594 846.875 630.277344 848.179688 628.800781 C 849.0625 627.800781 849.886719 626.746094 850.746094 625.726562 C 851.371094 624.980469 852 624.242188 852.613281 623.484375 C 854.929688 620.625 857.183594 617.707031 859.304688 614.675781 C 859.425781 614.515625 859.523438 614.339844 859.640625 614.171875 C 860.007812 613.644531 860.34375 613.09375 860.703125 612.558594 C 862.589844 609.777344 864.386719 606.925781 866.105469 604.019531 C 866.6875 603.027344 867.265625 602.035156 867.832031 601.027344 C 868.339844 600.128906 868.886719 599.253906 869.378906 598.339844 C 870.234375 596.757812 870.972656 595.105469 871.773438 593.488281 C 872.425781 592.171875 873.109375 590.871094 873.722656 589.527344 C 875.101562 586.554688 876.355469 583.523438 877.546875 580.464844 C 877.882812 579.613281 878.261719 578.792969 878.578125 577.941406 C 878.628906 577.804688 878.699219 577.675781 878.746094 577.539062 C 879.574219 575.285156 880.21875 572.964844 880.945312 570.671875 C 881.527344 568.828125 882.199219 567.015625 882.714844 565.152344 C 883.429688 562.574219 883.949219 559.949219 884.527344 557.328125 C 884.925781 555.558594 885.414062 553.816406 885.746094 552.027344 C 886.289062 549.050781 886.632812 546.035156 887.003906 543.015625 C 887.191406 541.546875 887.476562 540.097656 887.621094 538.613281 C 888.042969 534.101562 888.265625 529.554688 888.277344 524.980469 C 888.363281 477.480469 865.496094 439.035156 830.949219 420.238281 " fill-opacity="1" fill-rule="nonzero"/><g clip-path="url(#344258a629)"><path fill="#ffb155" d="M 790.628906 284.53125 C 795.113281 284.410156 799.542969 284.4375 803.921875 284.597656 C 804.773438 284.636719 805.609375 284.679688 806.460938 284.722656 C 810.957031 284.945312 815.414062 285.273438 819.792969 285.789062 C 819.910156 285.800781 820.023438 285.820312 820.132812 285.832031 C 824.449219 286.347656 828.691406 287.042969 832.886719 287.832031 C 833.652344 287.976562 834.421875 288.105469 835.183594 288.253906 C 839.238281 289.074219 843.226562 290.019531 847.160156 291.078125 C 848.105469 291.335938 849.042969 291.621094 849.988281 291.886719 C 853.464844 292.886719 856.890625 293.972656 860.269531 295.160156 C 860.933594 295.394531 861.609375 295.601562 862.269531 295.84375 C 866.117188 297.246094 869.894531 298.785156 873.605469 300.429688 C 874.480469 300.816406 875.351562 301.226562 876.21875 301.628906 C 879.890625 303.324219 883.523438 305.082031 887.046875 307 L 811.507812 265.910156 C 809.230469 264.667969 806.914062 263.476562 804.574219 262.324219 C 803.296875 261.699219 801.980469 261.132812 800.679688 260.539062 C 799.8125 260.132812 798.941406 259.722656 798.0625 259.332031 C 794.347656 257.695312 790.578125 256.15625 786.730469 254.75 C 786.070312 254.507812 785.394531 254.304688 784.730469 254.066406 C 781.351562 252.882812 777.925781 251.796875 774.449219 250.796875 C 773.503906 250.523438 772.574219 250.242188 771.621094 249.988281 C 770.976562 249.816406 770.351562 249.609375 769.699219 249.4375 C 766.394531 248.585938 763.035156 247.847656 759.644531 247.164062 C 758.882812 247.015625 758.113281 246.882812 757.347656 246.734375 C 753.15625 245.945312 748.917969 245.257812 744.59375 244.742188 C 744.484375 244.730469 744.371094 244.710938 744.253906 244.699219 C 739.875 244.183594 735.417969 243.855469 730.921875 243.628906 C 730.070312 243.585938 729.234375 243.539062 728.382812 243.507812 C 724.007812 243.34375 719.574219 243.320312 715.089844 243.4375 C 714.238281 243.464844 713.386719 243.507812 712.539062 243.539062 C 707.84375 243.71875 703.117188 244.003906 698.3125 244.507812 C 695.394531 244.855469 692.527344 245.203125 689.550781 245.625 C 686.691406 246.019531 683.765625 246.492188 680.898438 246.953125 C 675.59375 247.890625 670.367188 249.019531 665.195312 250.304688 C 663.460938 250.738281 661.777344 251.292969 660.058594 251.757812 C 656.65625 252.691406 653.25 253.609375 649.90625 254.683594 C 647.890625 255.335938 645.933594 256.105469 643.941406 256.804688 C 640.960938 257.855469 637.972656 258.878906 635.050781 260.042969 C 632.964844 260.875 630.925781 261.804688 628.871094 262.691406 C 626.566406 263.679688 624.234375 264.597656 621.96875 265.652344 C 621.421875 265.914062 620.894531 266.199219 620.347656 266.457031 C 619.425781 266.894531 618.519531 267.363281 617.609375 267.808594 C 613.980469 269.597656 610.398438 271.464844 606.871094 273.421875 C 606.066406 273.867188 605.253906 274.296875 604.453125 274.75 C 600.398438 277.054688 596.417969 279.476562 592.5 281.996094 C 591.617188 282.5625 590.75 283.152344 589.871094 283.734375 C 588.351562 284.742188 586.8125 285.714844 585.316406 286.753906 C 584.230469 287.503906 583.203125 288.34375 582.128906 289.113281 C 579.628906 290.898438 577.15625 292.726562 574.722656 294.601562 C 572.753906 296.109375 570.804688 297.628906 568.878906 299.195312 C 566.484375 301.144531 564.128906 303.152344 561.796875 305.179688 C 560.671875 306.160156 559.5 307.0625 558.386719 308.0625 C 557.636719 308.738281 556.941406 309.472656 556.195312 310.152344 C 554.128906 312.054688 552.117188 313.996094 550.105469 315.960938 C 548.242188 317.777344 546.382812 319.597656 544.570312 321.46875 C 542.621094 323.480469 540.714844 325.546875 538.816406 327.621094 C 537.667969 328.878906 536.457031 330.078125 535.328125 331.363281 C 534.738281 332.027344 534.195312 332.742188 533.613281 333.414062 C 531.710938 335.605469 529.875 337.851562 528.035156 340.101562 C 526.417969 342.085938 524.789062 344.0625 523.21875 346.085938 C 521.429688 348.394531 519.710938 350.761719 517.984375 353.125 C 516.90625 354.617188 515.75 356.050781 514.695312 357.558594 C 514.316406 358.101562 513.980469 358.664062 513.605469 359.210938 C 511.367188 362.453125 509.230469 365.761719 507.113281 369.089844 C 506.121094 370.640625 505.082031 372.167969 504.121094 373.746094 C 501.101562 378.675781 498.210938 383.679688 495.472656 388.773438 C 495.457031 388.796875 495.445312 388.816406 495.433594 388.839844 C 495.367188 388.964844 495.316406 389.09375 495.246094 389.226562 C 492.230469 394.859375 489.441406 400.613281 486.785156 406.425781 C 485.984375 408.164062 485.230469 409.914062 484.46875 411.664062 C 482.480469 416.222656 480.613281 420.816406 478.847656 425.457031 C 478.425781 426.566406 477.917969 427.636719 477.507812 428.746094 C 477.230469 429.503906 477 430.28125 476.726562 431.039062 C 476.03125 432.988281 475.382812 434.941406 474.726562 436.90625 C 473.757812 439.796875 472.8125 442.699219 471.925781 445.609375 C 471.3125 447.652344 470.726562 449.695312 470.15625 451.75 C 469.34375 454.636719 468.578125 457.53125 467.859375 460.441406 C 467.34375 462.511719 466.847656 464.578125 466.375 466.652344 C 465.710938 469.601562 465.109375 472.5625 464.53125 475.53125 C 464.140625 477.566406 463.738281 479.59375 463.390625 481.632812 C 462.847656 484.75 462.402344 487.882812 461.96875 491.011719 C 461.707031 492.898438 461.414062 494.785156 461.191406 496.679688 C 460.769531 500.253906 460.457031 503.832031 460.171875 507.414062 C 460.0625 508.867188 459.886719 510.320312 459.792969 511.773438 C 459.472656 516.808594 459.285156 521.84375 459.234375 526.875 C 459.230469 527.769531 459.285156 528.65625 459.285156 529.550781 C 459.289062 533.679688 459.351562 537.808594 459.550781 541.929688 C 459.636719 543.695312 459.804688 545.449219 459.925781 547.214844 C 460.148438 550.460938 460.382812 553.703125 460.726562 556.9375 C 460.9375 558.917969 461.222656 560.886719 461.476562 562.859375 C 461.867188 565.867188 462.285156 568.863281 462.785156 571.851562 C 463.128906 573.90625 463.519531 575.945312 463.917969 577.984375 C 464.476562 580.898438 465.082031 583.792969 465.753906 586.679688 C 466.226562 588.722656 466.722656 590.757812 467.25 592.792969 C 468.003906 595.675781 468.820312 598.539062 469.671875 601.386719 C 470.269531 603.375 470.859375 605.355469 471.511719 607.324219 C 472.472656 610.25 473.535156 613.152344 474.613281 616.046875 C 475.304688 617.890625 475.960938 619.742188 476.699219 621.566406 C 477.96875 624.714844 479.371094 627.820312 480.785156 630.925781 C 481.480469 632.453125 482.113281 633.996094 482.847656 635.511719 C 485.066406 640.09375 487.417969 644.632812 489.964844 649.105469 L 688.15625 997.027344 L 763.699219 1038.117188 L 565.503906 690.195312 C 562.957031 685.726562 560.601562 681.1875 558.386719 676.605469 C 557.652344 675.089844 557.019531 673.542969 556.324219 672.015625 C 554.910156 668.917969 553.507812 665.804688 552.238281 662.660156 C 551.5 660.832031 550.84375 658.976562 550.152344 657.132812 C 549.074219 654.238281 548.011719 651.347656 547.050781 648.421875 C 546.398438 646.445312 545.808594 644.460938 545.210938 642.46875 C 544.355469 639.625 543.539062 636.765625 542.796875 633.898438 C 542.269531 631.855469 541.765625 629.804688 541.292969 627.757812 C 540.621094 624.875 540.015625 621.988281 539.457031 619.089844 C 539.058594 617.046875 538.667969 615 538.324219 612.941406 C 537.824219 609.957031 537.40625 606.957031 537.015625 603.953125 C 536.753906 601.976562 536.476562 600.007812 536.265625 598.027344 C 535.921875 594.800781 535.6875 591.554688 535.464844 588.304688 C 535.34375 586.542969 535.175781 584.785156 535.089844 583.023438 C 534.890625 578.921875 534.828125 574.8125 534.824219 570.703125 C 534.824219 569.789062 534.769531 568.871094 534.773438 567.957031 C 534.824219 562.929688 535.015625 557.898438 535.332031 552.871094 C 535.425781 551.40625 535.601562 549.945312 535.71875 548.488281 C 536.003906 544.917969 536.308594 541.347656 536.730469 537.78125 C 536.953125 535.875 537.25 533.984375 537.511719 532.078125 C 537.945312 528.960938 538.394531 525.835938 538.925781 522.726562 C 539.277344 520.6875 539.679688 518.664062 540.070312 516.636719 C 540.648438 513.660156 541.25 510.699219 541.914062 507.738281 C 542.386719 505.667969 542.882812 503.601562 543.398438 501.535156 C 544.117188 498.628906 544.882812 495.730469 545.695312 492.84375 C 546.265625 490.792969 546.851562 488.742188 547.464844 486.707031 C 548.347656 483.789062 549.296875 480.890625 550.265625 477.996094 C 550.921875 476.039062 551.570312 474.078125 552.265625 472.136719 C 552.933594 470.253906 553.679688 468.402344 554.394531 466.539062 C 556.152344 461.910156 558.019531 457.320312 560 452.769531 C 560.769531 451.011719 561.527344 449.25 562.324219 447.503906 C 564.992188 441.691406 567.78125 435.929688 570.796875 430.285156 C 570.875 430.148438 570.933594 430.007812 571.007812 429.875 C 573.746094 424.777344 576.648438 419.769531 579.660156 414.832031 C 580.621094 413.265625 581.652344 411.753906 582.640625 410.199219 C 584.757812 406.867188 586.898438 403.550781 589.144531 400.304688 C 590.566406 398.246094 592.050781 396.242188 593.515625 394.222656 C 595.242188 391.859375 596.96875 389.488281 598.765625 387.171875 C 600.328125 385.152344 601.957031 383.183594 603.570312 381.203125 C 605.40625 378.949219 607.25 376.703125 609.152344 374.503906 C 610.851562 372.542969 612.609375 370.628906 614.359375 368.710938 C 616.261719 366.636719 618.160156 364.570312 620.109375 362.558594 C 621.921875 360.6875 623.785156 358.871094 625.644531 357.050781 C 627.65625 355.09375 629.667969 353.144531 631.726562 351.246094 C 633.570312 349.554688 635.453125 347.910156 637.339844 346.273438 C 639.667969 344.242188 642.027344 342.234375 644.425781 340.285156 C 646.34375 338.726562 648.292969 337.199219 650.261719 335.691406 C 652.703125 333.816406 655.171875 331.984375 657.675781 330.203125 C 660.226562 328.378906 662.785156 326.558594 665.40625 324.832031 C 666.285156 324.25 667.15625 323.660156 668.039062 323.085938 C 671.957031 320.566406 675.9375 318.144531 679.992188 315.839844 C 680.785156 315.386719 681.605469 314.960938 682.40625 314.511719 C 685.9375 312.558594 689.527344 310.6875 693.160156 308.898438 C 694.066406 308.453125 694.964844 307.988281 695.886719 307.550781 C 698.6875 306.21875 701.558594 305.011719 704.417969 303.785156 C 706.472656 302.894531 708.503906 301.957031 710.589844 301.132812 C 713.511719 299.972656 716.5 298.945312 719.480469 297.898438 C 721.472656 297.195312 723.429688 296.425781 725.445312 295.78125 C 728.785156 294.699219 732.195312 293.789062 735.597656 292.855469 C 737.316406 292.382812 739 291.832031 740.734375 291.402344 C 745.90625 290.113281 751.132812 288.980469 756.4375 288.042969 C 759.304688 287.585938 762.230469 287.117188 765.089844 286.714844 C 768.066406 286.292969 770.933594 285.953125 773.851562 285.597656 C 778.65625 285.101562 783.382812 284.808594 788.078125 284.628906 C 788.925781 284.597656 789.777344 284.554688 790.628906 284.53125 " fill-opacity="1" fill-rule="nonzero"/></g><g clip-path="url(#16b62dd631)"><path fill="#065cd0" d="M 764.371094 675.828125 C 832.699219 666.222656 888.140625 598.675781 888.277344 524.980469 C 888.414062 451.222656 833.199219 399.285156 764.867188 408.890625 C 696.636719 418.484375 641.097656 485.980469 640.960938 559.738281 C 640.824219 633.433594 696.144531 685.414062 764.371094 675.828125 M 773.851562 285.597656 C 947.144531 267.605469 1049.761719 459.597656 963.394531 634.277344 L 763.699219 1038.117188 L 565.503906 690.195312 C 479.738281 539.714844 583.019531 318.777344 756.4375 288.042969 C 759.304688 287.585938 762.230469 287.117188 765.089844 286.714844 C 768.066406 286.292969 770.933594 285.953125 773.851562 285.597656 " fill-opacity="1" fill-rule="nonzero"/></g></svg>